<?xml version="1.0" encoding="iso-8859-1"?>
<!-- Generator: Adobe Illustrator 19.0.0, SVG Export Plug-In . SVG Version: 6.00 Build 0)  -->
<svg version="1.1" id="Capa_1" xmlns="http://www.w3.org/2000/svg" xmlns:xlink="http://www.w3.org/1999/xlink" x="0px" y="0px"
	 viewBox="0 0 490 490" style="enable-background:new 0 0 490 490;" xml:space="preserve">
<g>
	<g>
		<path d="M320.45,0H64.95v490h360.1V112L320.45,0z M254.35,428.2h-124.4c-5.4,0-10.1-4.3-10.1-10.1c0-5.4,4.3-10.1,10.1-10.1h124.4
			c5.4,0,10.1,4.3,10.1,10.1C264.45,423.5,260.25,428.2,254.35,428.2z M360.15,364.4h-230.2c-5.4,0-10.1-4.3-10.1-10.1
			c0-5.4,4.3-10.1,10.1-10.1h230.2c5.4,0,10.1,4.3,10.1,10.1C370.25,360.1,365.65,364.4,360.15,364.4z M360.15,301h-230.2
			c-5.4,0-10.1-4.3-10.1-10.1c0-5.4,4.3-10.1,10.1-10.1h230.2c5.4,0,10.1,4.3,10.1,10.1C370.25,296.7,365.65,301,360.15,301z
			 M360.15,237.6h-230.2c-5.4,0-10.1-4.3-10.1-10.1s4.3-10.1,10.1-10.1h230.2c5.4,0,10.1,4.3,10.1,10.1S365.65,237.6,360.15,237.6z
			 M360.15,173.8h-230.2c-5.4,0-10.1-4.3-10.1-10.1c0-5.4,4.3-10.1,10.1-10.1h230.2c5.4,0,10.1,4.3,10.1,10.1
			C370.25,169.6,365.65,173.8,360.15,173.8z M300.25,131.8v-112l104.6,112H300.25z"/>
	</g>
</g>
<g>
</g>
<g>
</g>
<g>
</g>
<g>
</g>
<g>
</g>
<g>
</g>
<g>
</g>
<g>
</g>
<g>
</g>
<g>
</g>
<g>
</g>
<g>
</g>
<g>
</g>
<g>
</g>
<g>
</g>
</svg>
